<?xml version="1.0" standalone="no"?><!DOCTYPE svg PUBLIC "-//W3C//DTD SVG 1.1//EN" "http://www.w3.org/Graphics/SVG/1.1/DTD/svg11.dtd"><svg t="1548900684598" class="icon" style="" viewBox="0 0 1024 1024" version="1.1" xmlns="http://www.w3.org/2000/svg" p-id="1366" xmlns:xlink="http://www.w3.org/1999/xlink" width="200" height="200"><defs><style type="text/css"></style></defs><path d="M757.689 869.858H266.312c-45.25 0-86.668-24.429-108.089-63.752-21.281-39.077-19.558-84.745 4.61-122.164l4.076-6.311c40.746-63.104 62.2-135.902 62.04-210.526l-0.006-2.69a40.01 40.01 0 0 1-0.088-2.707l0.025-8.138c0.008-1.644 0.103-3.294 0.281-4.927 0.186-3.914 0.458-7.865 0.812-11.756 0.748-8.251 8.021-14.339 16.294-13.583 8.25 0.748 14.331 8.043 13.583 16.294-0.328 3.619-0.578 7.3-0.744 10.939-0.018 0.386-0.05 0.771-0.097 1.153a16.928 16.928 0 0 0-0.129 2.002l-0.025 8.015c0 0.313 0.01 0.585 0.029 0.808 0.037 0.426 0.057 0.853 0.058 1.28l0.007 3.246c0.172 80.432-22.94 158.881-66.838 226.864l-4.077 6.313c-18.113 28.044-19.409 62.264-3.467 91.538 16.163 29.67 47.485 48.102 81.744 48.102h491.377c34.26 0 65.583-18.432 81.745-48.103 15.94-29.269 14.644-63.489-3.468-91.538l-4.078-6.323c-43.904-67.982-67.017-146.43-66.835-226.855l0.006-2.951c0.001-0.453 0.022-0.904 0.064-1.355 0.048-0.519 0.061-1.032 0.037-1.527-0.01-0.214-0.015-0.428-0.016-0.643l-0.023-6.895a16.69 16.69 0 0 0-0.128-1.955 14.84 14.84 0 0 1-0.1-1.173c-2.861-62.737-29.892-121.683-76.11-165.98-47.706-45.727-110.488-70.911-176.782-70.911-40.877 0-81.46 9.811-117.361 28.371-7.361 3.803-16.41 0.921-20.214-6.437-3.804-7.359-0.922-16.409 6.437-20.214 40.142-20.752 85.489-31.721 131.139-31.721 74.068 0 144.223 28.146 197.54 79.253 51.672 49.523 81.951 115.468 85.297 185.732 0.18 1.621 0.275 3.267 0.284 4.901l0.022 6.642a41.086 41.086 0 0 1-0.086 4.571l-0.005 2.354c-0.168 74.618 21.285 147.415 62.04 210.522l4.079 6.324c24.161 37.418 25.885 83.086 4.607 122.154-21.42 39.328-62.838 63.757-108.09 63.757z" fill="#1A171B" p-id="1367"></path><path d="M255.335 400.508c-1.469 0-2.961-0.217-4.438-0.674-7.915-2.448-12.346-10.849-9.897-18.763a272.923 272.923 0 0 1 17.046-42.201c3.733-7.395 12.756-10.364 20.15-6.631 7.396 3.733 10.364 12.755 6.631 20.15a242.786 242.786 0 0 0-15.167 37.547c-1.991 6.439-7.922 10.572-14.325 10.572zM299.782 316.265a14.942 14.942 0 0 1-9.291-3.232c-6.5-5.138-7.604-14.57-2.468-21.069a286.528 286.528 0 0 1 26.439-29.068c5.981-5.732 15.477-5.53 21.209 0.449 5.732 5.98 5.531 15.477-0.449 21.209a256.52 256.52 0 0 0-23.662 26.012 14.977 14.977 0 0 1-11.778 5.699zM703.333 947.775H330.6c-8.284 0-15-6.716-15-15s6.716-15 15-15h372.733c8.284 0 15 6.716 15 15s-6.716 15-15 15zM512 200.72c-34.323 0-62.248-27.924-62.248-62.247S477.677 76.225 512 76.225s62.247 27.925 62.247 62.248S546.324 200.72 512 200.72z m0-94.495c-17.781 0-32.248 14.467-32.248 32.248S494.219 170.72 512 170.72s32.247-14.466 32.247-32.247-14.465-32.248-32.247-32.248zM690.784 509.58c-8.284 0-15-6.716-15-15 0-97.728-79.508-177.235-177.235-177.235-8.284 0-15-6.716-15-15s6.716-15 15-15c114.27 0 207.235 92.966 207.235 207.235 0 8.284-6.715 15-15 15z" fill="#1A171B" p-id="1368"></path></svg>